<svg width="100" height="31" viewBox="0 0 100 31" fill="none" xmlns="http://www.w3.org/2000/svg">
<path d="M94.7387 30.1342V16.4569H99.1861L99.8472 11.1017H94.7387V7.69074C94.7387 6.14544 95.1537 5.08743 97.2913 5.08743H100V0.313038C98.6821 0.166504 97.3574 0.0957504 96.0319 0.101102C92.1008 0.101102 89.4018 2.59093 89.4018 7.16173V11.0917H84.9833V16.4469H89.4114V30.1342H94.7387Z" fill="black"/>
<path d="M15.0468 12.2925V18.102H23.1138C22.363 21.7938 19.22 23.9149 15.0468 23.9149C12.7108 23.8828 10.4814 22.9323 8.84085 21.269C7.20031 19.6057 6.28055 17.3634 6.28055 15.0272C6.28055 12.691 7.20031 10.4487 8.84085 8.78545C10.4814 7.12218 12.7108 6.17165 15.0468 6.1395C17.0673 6.13708 19.0256 6.83825 20.5853 8.12259L24.9623 3.74565C23.1361 2.13926 20.9475 0.999925 18.5842 0.42542C16.2208 -0.149085 13.7534 -0.141608 11.3936 0.447211C9.03383 1.03603 6.85214 2.18861 5.03576 3.80604C3.21938 5.42346 1.82255 7.45745 0.96514 9.73344C0.107729 12.0094 -0.184661 14.4595 0.11306 16.8733C0.410781 19.2872 1.28972 21.5928 2.67446 23.5922C4.0592 25.5917 5.90839 27.2253 8.06334 28.3529C10.2183 29.4805 12.6147 30.0684 15.0468 30.0662C22.5667 30.0662 29.4049 24.5967 29.4049 15.0264C29.3932 14.1049 29.2803 13.1876 29.0682 12.2908L15.0468 12.2925Z" fill="black"/>
</svg>
